<?xml version="1.0" encoding="UTF-8" standalone="no"?>
<!-- Created with Inkscape (http://www.inkscape.org/) -->

<svg
   width="2016.0166mm"
   height="2016.0188mm"
   viewBox="0 0 468.84107 468.84158"
   version="1.1"
   id="svg1"
   inkscape:export-filename="bitmap.png"
   inkscape:export-xdpi="31.084995"
   inkscape:export-ydpi="31.084995"
   inkscape:version="1.4.2 (ebf0e940, 2025-05-08)"
   sodipodi:docname="favicon.svg"
   xmlns:inkscape="http://www.inkscape.org/namespaces/inkscape"
   xmlns:sodipodi="http://sodipodi.sourceforge.net/DTD/sodipodi-0.dtd"
   xmlns="http://www.w3.org/2000/svg"
   xmlns:svg="http://www.w3.org/2000/svg"
   xmlns:rdf="http://www.w3.org/1999/02/22-rdf-syntax-ns#"
   xmlns:cc="http://creativecommons.org/ns#">
  <sodipodi:namedview
     id="namedview1"
     pagecolor="#ffffff"
     bordercolor="#000000"
     borderopacity="0.25"
     inkscape:showpageshadow="false"
     inkscape:pageopacity="0.0"
     inkscape:pagecheckerboard="0"
     inkscape:deskcolor="#d1d1d1"
     inkscape:document-units="mm"
     inkscape:lockguides="false"
     showgrid="true"
     inkscape:zoom="0.06820866"
     inkscape:cx="6179.5672"
     inkscape:cy="6018.2974"
     inkscape:window-width="1712"
     inkscape:window-height="1040"
     inkscape:window-x="0"
     inkscape:window-y="39"
     inkscape:window-maximized="1"
     inkscape:current-layer="svg1"
     labelstyle="default"
     borderlayer="false"
     showborder="true">
    <inkscape:grid
       id="grid11"
       units="mm"
       originx="25.983886"
       originy="374.16265"
       spacingx="0.23255813"
       spacingy="0.23255822"
       empcolor="#0099e5"
       empopacity="0.30196078"
       color="#0099e5"
       opacity="0.14901961"
       empspacing="5"
       enabled="true"
       visible="true"
       snapvisiblegridlinesonly="true"
       dotted="false" />
  </sodipodi:namedview>
  <defs
     id="defs1">
    <inkscape:path-effect
       effect="powerstroke"
       message=""
       id="path-effect814"
       is_visible="true"
       lpeversion="1.3"
       scale_width="64.335664"
       interpolator_type="CentripetalCatmullRom"
       interpolator_beta="0.2"
       start_linecap_type="zerowidth"
       end_linecap_type="zerowidth"
       offset_points="0.2,0.061406001 | 0.5,0.061406001 | 0.8,0.061406001"
       linejoin_type="round"
       miter_limit="4"
       not_jump="false"
       sort_points="true" />
    <inkscape:path-effect
       effect="powerstroke"
       message=""
       id="path-effect813"
       is_visible="true"
       lpeversion="1.3"
       scale_width="62.587413"
       interpolator_type="CentripetalCatmullRom"
       interpolator_beta="0.2"
       start_linecap_type="zerowidth"
       end_linecap_type="zerowidth"
       offset_points="0.2,0.061406001 | 0.5,0.061406001 | 0.8,0.061406001"
       linejoin_type="round"
       miter_limit="4"
       not_jump="false"
       sort_points="true" />
  </defs>
  <path
     id="path810"
     style="fill:#008000;stroke-width:0.0308281"
     d="m 122.7308,52.60203 a 67.44047,52.599969 0 0 0 67.44047,52.59997 67.44047,52.599969 0 0 0 67.44048,-52.59997 67.44047,52.599969 0 0 0 -67.44048,-52.6 67.44047,52.599969 0 0 0 -67.44047,52.6 z m 88.64452,-0.002 A 67.44047,52.599969 0 0 0 278.8158,105.19999 67.44047,52.599969 0 0 0 346.25627,52.60003 67.44047,52.599969 0 0 0 278.8158,0 67.44047,52.599969 0 0 0 211.37532,52.60003 Z m 22.73274,170.65762 c 18.98366,0 62.02788,-63.77475 71.51972,-78.89995 9.49183,-15.12523 48.00247,-81.30806 38.51062,-96.43329 -9.49183,-15.12524 -91.04668,-17.53336 -110.03034,-17.53336 -18.98366,0 -100.53852,2.40812 -110.03035,17.53336 -9.49182,15.1252 29.01881,81.30806 38.51063,96.43329 9.49183,15.12521 52.53606,78.89996 71.51972,78.89995 z M 122.7308,416.23938 a 67.44047,52.599969 0 0 1 67.44047,-52.59997 67.44047,52.599969 0 0 1 67.44048,52.59997 67.44047,52.599969 0 0 1 -67.44048,52.59999 67.44047,52.599969 0 0 1 -67.44047,-52.59999 z m 88.64452,0.002 a 67.44047,52.599969 0 0 1 67.44048,-52.5998 67.44047,52.599969 0 0 1 67.44047,52.59996 67.44047,52.599969 0 0 1 -67.44047,52.60003 67.44047,52.599969 0 0 1 -67.44048,-52.60003 z m 22.73274,-170.65781 c 18.98366,0 62.02788,63.77476 71.51972,78.89996 9.49183,15.12523 48.00247,81.30807 38.51062,96.43329 -9.49183,15.12524 -91.04668,17.53336 -110.03034,17.53336 -18.98366,0 -100.53852,-2.40812 -110.03035,-17.53336 -9.49182,-15.1252 29.01881,-81.30806 38.51063,-96.43329 9.49183,-15.12521 52.53606,-78.89996 71.51972,-78.89996 z M 52.60197,346.11055 A 52.599969,67.440469 0 0 0 105.20194,278.67008 52.599969,67.440469 0 0 0 52.60197,211.2296 52.599969,67.440469 0 0 0 0.00198,278.67008 52.599969,67.440469 0 0 0 52.60197,346.11055 Z m -0.002,-88.64452 A 52.599969,67.440469 0 0 0 105.19998,190.02555 52.599969,67.440469 0 0 0 52.60002,122.58509 52.599969,67.440469 0 0 0 0,190.02555 52.599969,67.440469 0 0 0 52.60002,257.46603 Z m 170.65757,-22.73274 c 0,-18.98366 -63.77476,-62.02788 -78.89995,-71.51972 -15.12524,-9.49182 -81.30807,-48.00246 -96.43329,-38.51062 -15.12525,9.49184 -17.53336,91.04668 -17.53336,110.03034 0,18.98366 2.40811,100.53852 17.53336,110.03035 15.12519,9.49182 81.30805,-29.01881 96.43329,-38.51063 15.12521,-9.49184 78.89995,-52.53606 78.89995,-71.51972 z m 192.98155,111.37726 a 52.599969,67.440469 0 0 1 -52.59998,-67.44047 52.599969,67.440469 0 0 1 52.59998,-67.44048 52.599969,67.440469 0 0 1 52.59999,67.44048 52.599969,67.440469 0 0 1 -52.59999,67.44047 z m 0.002,-88.64452 a 52.599969,67.440469 0 0 1 -52.60001,-67.44048 52.599969,67.440469 0 0 1 52.59996,-67.44046 52.599969,67.440469 0 0 1 52.60003,67.44046 52.599969,67.440469 0 0 1 -52.60003,67.44048 z M 245.58352,234.73329 c 0,-18.98366 63.77475,-62.02788 78.89996,-71.51972 15.12522,-9.49182 81.30806,-48.00246 96.43328,-38.51062 15.12525,9.49184 17.53336,91.04668 17.53336,110.03034 0,18.98366 -2.40811,100.53852 -17.53336,110.03035 -15.12519,9.49182 -81.30806,-29.01881 -96.43328,-38.51063 -15.12522,-9.49184 -78.89996,-52.53606 -78.89996,-71.51972 z" />
  <metadata
     id="metadata11">
    <rdf:RDF>
      <cc:Work
         rdf:about="">
        <cc:license
           rdf:resource="http://creativecommons.org/licenses/by/4.0/" />
      </cc:Work>
      <cc:License
         rdf:about="http://creativecommons.org/licenses/by/4.0/">
        <cc:permits
           rdf:resource="http://creativecommons.org/ns#Reproduction" />
        <cc:permits
           rdf:resource="http://creativecommons.org/ns#Distribution" />
        <cc:requires
           rdf:resource="http://creativecommons.org/ns#Notice" />
        <cc:requires
           rdf:resource="http://creativecommons.org/ns#Attribution" />
        <cc:permits
           rdf:resource="http://creativecommons.org/ns#DerivativeWorks" />
      </cc:License>
    </rdf:RDF>
  </metadata>
  <path
     id="path822"
     style="fill:#ffffff;stroke-width:0.106869"
     d="m 234.42055,80.93237 a 153.48844,153.48842 0 0 0 -153.4885,153.48838 153.48844,153.48842 0 0 0 153.4885,153.4885 153.48844,153.48842 0 0 0 90.46392,-29.49246 153.48844,153.48842 0 0 0 0,-1.3e-4 c -7.79132,-14.96201 -15.63576,-28.16288 -19.2568,-33.93302 -2.96623,-4.72667 -9.20904,-14.20433 -16.9703,-25.00202 a 84.702658,84.702651 0 0 1 -54.23682,19.64185 84.702658,84.702651 0 0 1 -84.70272,-84.70272 84.702658,84.702651 0 0 1 84.70272,-84.7026 84.702658,84.702651 0 0 1 54.23682,19.64185 c 7.76125,-10.79764 14.00407,-20.27524 16.9703,-25.0019 3.62105,-5.77016 11.46544,-18.97105 19.2568,-33.93315 A 153.48844,153.48842 0 0 0 234.42055,80.93237 Z m 123.99579,63.02458 c -14.96203,7.79129 -28.16289,15.63564 -33.93303,19.25668 -4.72665,2.96621 -14.20428,9.20916 -25.0019,16.97042 10.79773,-7.76131 20.27546,-14.00419 25.00214,-16.97042 5.77012,-3.62104 18.97082,-11.46539 33.93279,-19.25668 z m -33.93279,162.2962 c 5.72759,3.59433 18.77629,11.34971 33.60158,19.08399 a 153.48844,153.48842 0 0 0 0,-1.2e-4 c -14.82534,-7.73429 -27.87407,-15.48958 -33.60158,-19.08387 z" />
</svg>
